<svg width="1117" height="263" viewBox="0 0 1117 263" fill="none" xmlns="http://www.w3.org/2000/svg">
<path d="M1091.06 109.844L1079.49 113.111C1078.35 109.844 1076.74 106.884 1074.66 104.233C1072.57 101.581 1069.85 99.4744 1066.49 97.9119C1063.18 96.3494 1059.06 95.5682 1054.13 95.5682C1046.75 95.5682 1040.69 97.3201 1035.95 100.824C1031.22 104.328 1028.85 108.849 1028.85 114.389C1028.85 119.077 1030.46 122.888 1033.68 125.824C1036.94 128.712 1041.96 131.009 1048.73 132.713L1065.21 136.761C1074.35 138.987 1081.19 142.514 1085.74 147.344C1090.33 152.173 1092.63 158.234 1092.63 165.526C1092.63 171.681 1090.92 177.15 1087.51 181.932C1084.1 186.714 1079.35 190.478 1073.24 193.224C1067.18 195.923 1060.15 197.273 1052.14 197.273C1041.49 197.273 1032.71 194.882 1025.79 190.099C1018.88 185.27 1014.45 178.31 1012.51 169.219L1024.66 166.236C1026.22 172.723 1029.27 177.623 1033.82 180.937C1038.41 184.252 1044.45 185.909 1051.93 185.909C1060.31 185.909 1067.01 184.039 1072.03 180.298C1077.05 176.51 1079.56 171.776 1079.56 166.094C1079.56 161.69 1078.09 157.997 1075.15 155.014C1072.22 151.984 1067.77 149.759 1061.8 148.338L1043.98 144.077C1034.51 141.804 1027.5 138.205 1022.95 133.281C1018.41 128.357 1016.13 122.249 1016.13 114.957C1016.13 108.944 1017.77 103.665 1021.04 99.1193C1024.3 94.5265 1028.8 90.928 1034.53 88.3239C1040.26 85.7197 1046.79 84.4176 1054.13 84.4176C1064.12 84.4176 1072.1 86.6903 1078.07 91.2358C1084.08 95.7339 1088.41 101.937 1091.06 109.844Z" fill="white"/>
<path d="M901.847 235.909V85.9091H914.134V106.719H915.625C917.14 103.452 919.224 100.114 921.875 96.7045C924.527 93.2481 928.03 90.3362 932.386 87.9687C936.79 85.6013 942.33 84.4176 949.006 84.4176C958.002 84.4176 965.862 86.785 972.585 91.5199C979.356 96.2074 984.612 102.789 988.352 111.264C992.14 119.692 994.034 129.517 994.034 140.739C994.034 152.008 992.14 161.88 988.352 170.355C984.612 178.83 979.356 185.436 972.585 190.17C965.862 194.905 958.049 197.273 949.148 197.273C942.566 197.273 937.05 196.089 932.599 193.722C928.196 191.354 924.621 188.442 921.875 184.986C919.176 181.482 917.093 178.073 915.625 174.759H914.489V235.909H901.847ZM914.347 140.526C914.347 149.332 915.649 157.145 918.253 163.963C920.904 170.734 924.692 176.061 929.617 179.943C934.588 183.778 940.601 185.696 947.656 185.696C954.901 185.696 961.009 183.707 965.98 179.73C970.999 175.705 974.811 170.284 977.415 163.466C980.066 156.648 981.392 149.001 981.392 140.526C981.392 132.145 980.09 124.593 977.486 117.869C974.929 111.146 971.141 105.819 966.122 101.889C961.103 97.9119 954.948 95.9233 947.656 95.9233C940.554 95.9233 934.517 97.8409 929.546 101.676C924.574 105.464 920.786 110.72 918.182 117.443C915.625 124.119 914.347 131.813 914.347 140.526Z" fill="white"/>
<path d="M859.7 195V85.9091H872.413V195H859.7ZM866.163 67.1591C863.558 67.1591 861.333 66.2832 859.486 64.5313C857.64 62.732 856.717 60.5777 856.717 58.0682C856.717 55.5587 857.64 53.4281 859.486 51.6762C861.333 49.8769 863.558 48.9773 866.163 48.9773C868.767 48.9773 870.992 49.8769 872.839 51.6762C874.685 53.4281 875.609 55.5587 875.609 58.0682C875.609 60.5777 874.685 62.732 872.839 64.5313C870.992 66.2832 868.767 67.1591 866.163 67.1591Z" fill="white"/>
<path d="M759.598 126.818V195H746.956V49.5454H759.598V103.026H760.734C763.291 97.3911 767.245 92.893 772.595 89.5312C777.993 86.1695 784.811 84.4886 793.05 84.4886C800.436 84.4886 806.923 86.0037 812.51 89.034C818.097 92.0644 822.453 96.5388 825.578 102.457C828.703 108.376 830.266 115.668 830.266 124.332V195H817.553V125.114C817.553 116.117 815.043 109.039 810.024 103.878C805.053 98.6695 798.329 96.0653 789.854 96.0653C784.03 96.0653 778.845 97.2964 774.3 99.7585C769.754 102.221 766.156 105.772 763.504 110.412C760.9 115.005 759.598 120.473 759.598 126.818Z" fill="white"/>
<path d="M721.712 109.844L710.136 113.111C708.999 109.844 707.389 106.884 705.306 104.233C703.223 101.581 700.5 99.4744 697.138 97.9119C693.824 96.3494 689.705 95.5682 684.78 95.5682C677.394 95.5682 671.333 97.3201 666.599 100.824C661.864 104.328 659.496 108.849 659.496 114.389C659.496 119.077 661.106 122.888 664.326 125.824C667.593 128.712 672.612 131.009 679.383 132.713L695.86 136.761C704.998 138.987 711.84 142.514 716.386 147.344C720.978 152.173 723.275 158.234 723.275 165.526C723.275 171.681 721.57 177.15 718.161 181.932C714.752 186.714 709.994 190.478 703.886 193.224C697.825 195.923 690.794 197.273 682.792 197.273C672.138 197.273 663.355 194.882 656.442 190.099C649.53 185.27 645.102 178.31 643.161 169.219L655.306 166.236C656.869 172.723 659.923 177.623 664.468 180.937C669.061 184.252 675.098 185.909 682.579 185.909C690.959 185.909 697.659 184.039 702.678 180.298C707.697 176.51 710.207 171.776 710.207 166.094C710.207 161.69 708.739 157.997 705.803 155.014C702.868 151.984 698.417 149.759 692.451 148.338L674.624 144.077C665.155 141.804 658.147 138.205 653.601 133.281C649.056 128.357 646.783 122.249 646.783 114.957C646.783 108.944 648.417 103.665 651.684 99.1193C654.951 94.5265 659.449 90.928 665.178 88.3239C670.907 85.7197 677.441 84.4176 684.78 84.4176C694.771 84.4176 702.749 86.6903 708.715 91.2358C714.728 95.7339 719.061 101.937 721.712 109.844Z" fill="white"/>
<path d="M573.919 238.182C566.485 238.182 559.975 237.211 554.388 235.27C548.801 233.376 544.09 230.772 540.254 227.457C536.419 224.143 533.436 220.426 531.305 216.307L541.675 209.489C543.237 212.235 545.321 214.934 547.925 217.585C550.576 220.237 554.009 222.438 558.223 224.19C562.484 225.942 567.716 226.818 573.919 226.818C583.578 226.818 591.367 224.403 597.286 219.574C603.251 214.744 606.234 207.24 606.234 197.06V172.486H605.098C603.63 175.8 601.523 179.115 598.777 182.429C596.031 185.696 592.432 188.419 587.982 190.597C583.578 192.775 578.109 193.864 571.575 193.864C562.863 193.864 555.122 191.709 548.351 187.401C541.627 183.092 536.324 176.937 532.442 168.935C528.607 160.885 526.689 151.297 526.689 140.17C526.689 129.138 528.559 119.432 532.3 111.051C536.088 102.67 541.367 96.1364 548.138 91.4489C554.909 86.7614 562.792 84.4176 571.788 84.4176C578.465 84.4176 584.004 85.6013 588.408 87.9687C592.811 90.2888 596.339 93.1771 598.99 96.6335C601.689 100.09 603.796 103.452 605.311 106.719H606.59V85.9091H618.947V197.841C618.947 207.074 616.983 214.673 613.053 220.639C609.123 226.605 603.772 231.009 597.001 233.849C590.231 236.738 582.536 238.182 573.919 238.182ZM573.067 182.287C580.074 182.287 586.064 180.606 591.036 177.244C596.007 173.835 599.819 168.958 602.47 162.614C605.122 156.269 606.447 148.717 606.447 139.957C606.447 131.435 605.145 123.883 602.541 117.301C599.937 110.672 596.149 105.464 591.178 101.676C586.253 97.8409 580.216 95.9233 573.067 95.9233C565.775 95.9233 559.62 97.8883 554.601 101.818C549.582 105.748 545.794 111.051 543.237 117.727C540.68 124.356 539.402 131.766 539.402 139.957C539.402 148.291 540.704 155.653 543.308 162.045C545.912 168.39 549.724 173.362 554.743 176.96C559.762 180.511 565.87 182.287 573.067 182.287Z" fill="white"/>
<path d="M455.44 197.486C448.859 197.486 442.846 196.207 437.401 193.651C431.955 191.046 427.623 187.306 424.403 182.429C421.184 177.505 419.574 171.539 419.574 164.531C419.574 159.134 420.592 154.588 422.628 150.895C424.664 147.202 427.552 144.171 431.293 141.804C435.033 139.437 439.46 137.566 444.574 136.193C449.687 134.82 455.322 133.755 461.477 132.997C467.585 132.24 472.746 131.577 476.96 131.009C481.222 130.44 484.465 129.541 486.69 128.31C488.916 127.079 490.028 125.09 490.028 122.344V119.787C490.028 112.353 487.803 106.506 483.352 102.244C478.949 97.9356 472.604 95.7812 464.318 95.7812C456.458 95.7812 450.043 97.5095 445.071 100.966C440.147 104.422 436.69 108.494 434.702 113.182L422.699 108.849C425.161 102.884 428.57 98.125 432.926 94.5739C437.282 90.9754 442.159 88.3949 447.557 86.8324C452.955 85.2225 458.423 84.4176 463.963 84.4176C468.13 84.4176 472.462 84.9621 476.96 86.0511C481.506 87.1401 485.72 89.0341 489.602 91.7329C493.485 94.3845 496.634 98.1013 499.048 102.884C501.463 107.618 502.67 113.632 502.67 120.923V195H490.028V177.741H489.247C487.732 180.961 485.483 184.086 482.5 187.116C479.517 190.147 475.777 192.633 471.278 194.574C466.78 196.515 461.501 197.486 455.44 197.486ZM457.145 185.909C463.868 185.909 469.692 184.418 474.616 181.435C479.541 178.452 483.329 174.498 485.98 169.574C488.679 164.602 490.028 159.134 490.028 153.168V137.401C489.081 138.3 487.495 139.105 485.27 139.815C483.092 140.526 480.559 141.165 477.67 141.733C474.83 142.254 471.989 142.704 469.148 143.082C466.307 143.461 463.75 143.793 461.477 144.077C455.322 144.834 450.066 146.018 445.71 147.628C441.354 149.238 438.016 151.463 435.696 154.304C433.376 157.098 432.216 160.696 432.216 165.099C432.216 171.728 434.583 176.866 439.318 180.511C444.053 184.11 449.995 185.909 457.145 185.909Z" fill="white"/>
<path d="M395.52 49.5454V195H382.878V49.5454H395.52Z" fill="white"/>
<path d="M272.318 195V49.5454H356.48V61.4772H285.599V116.236H349.875V128.168H285.599V195H272.318Z" fill="white"/>
<path d="M60.1293 145.344C60.5346 145.344 60.8891 145.617 60.998 146.007C67.4591 169.162 85.7001 187.403 108.855 193.864C109.245 193.973 109.519 194.328 109.519 194.733V203.997C109.519 204.573 108.982 204.999 108.423 204.862C79.6683 197.827 57.035 175.194 50.0001 146.44C49.8633 145.881 50.2893 145.344 50.8649 145.344H60.1293ZM203.998 145.344C204.574 145.344 205 145.881 204.863 146.44C197.828 175.194 175.195 197.827 146.441 204.862C145.882 204.999 145.345 204.573 145.345 203.997V194.733C145.345 194.328 145.618 193.973 146.008 193.864C169.163 187.403 187.404 169.162 193.865 146.007C193.974 145.617 194.329 145.344 194.734 145.344H203.998ZM109.519 60.1284C109.519 60.5336 109.245 60.8881 108.855 60.997C85.7001 67.4582 67.4592 85.6991 60.998 108.854C60.8891 109.244 60.5346 109.518 60.1293 109.518H50.8649C50.2893 109.518 49.8633 108.981 50.0001 108.422C57.035 79.6674 79.6683 57.034 108.423 49.9991C108.982 49.8624 109.519 50.2883 109.519 50.8639V60.1284ZM145.345 50.8639C145.345 50.2883 145.882 49.8623 146.441 49.9991C175.195 57.0341 197.828 79.6674 204.863 108.422C205 108.981 204.574 109.518 203.998 109.518H194.734C194.329 109.518 193.974 109.244 193.865 108.854C187.404 85.6992 169.163 67.4581 146.008 60.997C145.618 60.8881 145.345 60.5336 145.345 60.1284V50.8639Z" fill="white"/>
<path d="M148.136 106.038C148.415 105.81 148.822 105.83 149.077 106.085C149.331 106.338 149.352 106.743 149.126 107.022L112.43 152.328C112.096 152.741 111.477 152.774 111.101 152.398L103.004 144.301C102.629 143.926 102.66 143.31 103.069 142.975L148.136 106.038Z" fill="white"/>
<rect x="123.417" y="181.635" width="7.16522" height="39.4087" rx="0.895652" fill="white"/>
<rect x="123.417" y="32.9565" width="7.16522" height="39.4087" rx="0.895652" fill="white"/>
<rect x="221.043" y="123.417" width="7.16522" height="39.4087" rx="0.895652" transform="rotate(90 221.043 123.417)" fill="white"/>
<rect x="72.3652" y="123.417" width="7.16522" height="39.4087" rx="0.895652" transform="rotate(90 72.3652 123.417)" fill="white"/>
</svg>
