<svg width="130" height="35" viewBox="0 0 130 35" fill="none" xmlns="http://www.w3.org/2000/svg">
<g clip-path="url(#clip0_3298_19774)">
<path d="M3.03798 4.02306C3.06945 3.93129 3.09859 3.84913 3.12495 3.77672C7.97074 1.86321 13.3637 1.86264 18.2098 3.77498C18.2368 3.85066 18.2668 3.93671 18.2992 4.03296C18.4546 4.49414 18.6658 5.18914 18.8783 6.09913C19.3034 7.91907 19.7336 10.5979 19.7336 13.986C19.7336 17.3742 19.3034 20.053 18.8783 21.873C18.6658 22.7829 18.4546 23.4779 18.2992 23.9391C18.2668 24.0354 18.2368 24.1214 18.2098 24.1971C13.3637 26.1094 7.97074 26.1089 3.12495 24.1954C3.09859 24.1229 3.06945 24.0408 3.03798 23.949C2.88333 23.498 2.67261 22.8146 2.46039 21.9127C2.036 20.109 1.60547 17.4306 1.60547 13.986C1.60547 10.5415 2.036 7.86308 2.46039 6.05941C2.67261 5.15746 2.88333 4.4741 3.03798 4.02306Z" stroke="white" stroke-width="1.8423"/>
<path fill-rule="evenodd" clip-rule="evenodd" d="M3.29187 27.0894C8.07466 28.7292 13.2674 28.7292 18.0502 27.0894C18.4461 28.2444 17.8323 29.5119 16.6468 29.8042C12.7221 30.7721 8.61992 30.7721 4.69522 29.8042C3.50973 29.5119 2.89588 28.2444 3.29187 27.0894Z" fill="white"/>
<path fill-rule="evenodd" clip-rule="evenodd" d="M4.74619 31.2628C8.63437 32.2349 12.702 32.2349 16.5902 31.2628C16.8864 32.4473 16.1668 33.6571 14.9618 33.8539C12.1183 34.3187 9.21807 34.3187 6.37456 33.8539C5.16957 33.6571 4.45005 32.4473 4.74619 31.2628Z" fill="white"/>
<path d="M14.6475 12.2175H14.6475C13.6707 12.2175 12.8789 13.0093 12.8789 13.9861V13.9861C12.8789 14.9629 13.6707 15.7547 14.6475 15.7547H14.6475C15.6243 15.7547 16.4161 14.9629 16.4161 13.9861V13.9861C16.4161 13.0093 15.6243 12.2175 14.6475 12.2175Z" fill="white"/>
<path fill-rule="evenodd" clip-rule="evenodd" d="M35.2415 21.9737H38.4855C39.3855 21.9737 40.1826 21.8514 40.8774 21.6067C41.5797 21.3541 42.1681 20.9949 42.6416 20.5292C43.1231 20.0556 43.4862 19.4833 43.7309 18.8123C43.9755 18.1335 44.0979 17.3638 44.0979 16.5034C44.0979 15.6746 43.9836 14.9208 43.7545 14.2419C43.5257 13.5631 43.1784 12.9829 42.7127 12.5014C42.247 12.012 41.6629 11.6331 40.9603 11.3647C40.2577 11.0963 39.4328 10.9621 38.4855 10.9621H35.2415V21.9737ZM32.2812 24.5194V8.41644H38.5331C39.7564 8.41644 40.8891 8.59405 41.9312 8.94926C42.973 9.29658 43.873 9.80966 44.6309 10.4885C45.3885 11.1674 45.9804 12.008 46.4069 13.0105C46.8409 14.013 47.0581 15.1615 47.0581 16.4561C47.0581 17.6559 46.8727 18.7531 46.5015 19.7477C46.1306 20.7344 45.582 21.583 44.8558 22.2934C44.1374 22.9959 43.2532 23.5446 42.2034 23.9392C41.1535 24.326 39.946 24.5194 38.5803 24.5194H32.2812ZM47.5453 18.4334C47.5453 17.5415 47.711 16.7047 48.0427 15.9233C48.3741 15.1339 48.836 14.4472 49.4279 13.863C50.0279 13.2789 50.7382 12.8171 51.5593 12.4777C52.3803 12.1383 53.2761 11.9686 54.247 11.9686C55.226 11.9686 56.1257 12.1383 56.9467 12.4777C57.7755 12.8171 58.4859 13.2789 59.0778 13.863C59.6778 14.4472 60.1435 15.1339 60.4752 15.9233C60.8144 16.7047 60.9843 17.5415 60.9843 18.4334C60.9843 19.3333 60.8186 20.174 60.4869 20.9554C60.1555 21.7369 59.6898 22.4197 59.0898 23.0038C58.4898 23.588 57.7755 24.0497 56.9467 24.3892C56.1257 24.7207 55.2218 24.8864 54.2353 24.8864C53.2645 24.8864 52.3684 24.7207 51.5473 24.3892C50.7344 24.0497 50.0318 23.588 49.4398 23.0038C48.8479 22.4197 48.3822 21.7369 48.0427 20.9554C47.711 20.1661 47.5453 19.3254 47.5453 18.4334ZM50.4227 18.4216C50.4227 19.0057 50.5214 19.5425 50.7185 20.0319C50.924 20.5134 51.2001 20.9317 51.5473 21.287C51.8949 21.6343 52.3014 21.9066 52.7671 22.104C53.2405 22.3013 53.7418 22.4 54.2706 22.4C54.8075 22.4 55.3088 22.3053 55.7745 22.1158C56.2402 21.9185 56.6467 21.6461 56.994 21.2988C57.3412 20.9436 57.6137 20.5213 57.8111 20.0319C58.0163 19.5425 58.1189 19.0057 58.1189 18.4216C58.1189 17.8454 58.0163 17.3165 57.8111 16.835C57.6137 16.3456 57.3412 15.9272 56.994 15.5799C56.6467 15.2326 56.2402 14.9603 55.7745 14.7629C55.3088 14.5656 54.8075 14.4669 54.2706 14.4669C53.7341 14.4669 53.2328 14.5656 52.7671 14.7629C52.3014 14.9524 51.8949 15.2247 51.5473 15.5799C51.2001 15.9272 50.924 16.3416 50.7185 16.8231C50.5214 17.3047 50.4227 17.8375 50.4227 18.4216ZM61.9217 15.9233C61.59 16.7047 61.4243 17.5415 61.4243 18.4334C61.4243 19.3254 61.59 20.1661 61.9217 20.9554C62.2609 21.7369 62.7266 22.4197 63.3188 23.0038C63.9107 23.588 64.6133 24.0497 65.4263 24.3892C66.2473 24.7207 67.1431 24.8864 68.114 24.8864C69.1007 24.8864 70.0046 24.7207 70.8256 24.3892C71.6545 24.0497 72.3687 23.588 72.9687 23.0038C73.5687 22.4197 74.0344 21.7369 74.3658 20.9554C74.6972 20.174 74.8632 19.3333 74.8632 18.4334C74.8632 17.5415 74.6933 16.7047 74.3539 15.9233C74.0224 15.1339 73.5568 14.4472 72.9568 13.863C72.3648 13.2789 71.6545 12.8171 70.8256 12.4777C70.0046 12.1383 69.1046 11.9686 68.1259 11.9686C67.1551 11.9686 66.259 12.1383 65.4382 12.4777C64.6172 12.8171 63.9068 13.2789 63.3068 13.863C62.7149 14.4472 62.2531 15.1339 61.9217 15.9233ZM64.5974 20.0319C64.4 19.5425 64.3013 19.0057 64.3013 18.4216C64.3013 17.8375 64.4 17.3047 64.5974 16.8231C64.8026 16.3416 65.079 15.9272 65.4263 15.5799C65.7735 15.2247 66.1803 14.9524 66.646 14.7629C67.1117 14.5656 67.613 14.4669 68.1496 14.4669C68.6865 14.4669 69.1878 14.5656 69.6535 14.7629C70.1192 14.9603 70.5256 15.2326 70.8729 15.5799C71.2202 15.9272 71.4926 16.3456 71.6898 16.835C71.8952 17.3165 71.9978 17.8454 71.9978 18.4216C71.9978 19.0057 71.8952 19.5425 71.6898 20.0319C71.4926 20.5213 71.2202 20.9436 70.8729 21.2988C70.5256 21.6461 70.1192 21.9185 69.6535 22.1158C69.1878 22.3053 68.6865 22.4 68.1496 22.4C67.6208 22.4 67.1195 22.3013 66.646 22.104C66.1803 21.9066 65.7735 21.6343 65.4263 21.287C65.079 20.9317 64.8026 20.5134 64.5974 20.0319ZM82.4126 14.8704L81.5356 12.3819C81.0137 12.4434 80.5426 12.5661 80.122 12.75C79.4984 13.0263 78.9816 13.3736 78.5712 13.792L78.3107 12.3356H75.978V24.5194H78.8553V18.6821C78.8553 18.0506 78.9382 17.4981 79.1039 17.0244C79.2777 16.5508 79.5223 16.1561 79.8379 15.8404C80.1615 15.5167 80.5483 15.276 80.9984 15.1181C81.421 14.9624 81.8924 14.8798 82.4126 14.8704ZM85.1589 18.1022L87.4414 24.5194H90.0462L92.7815 16.7047L95.5521 24.5194H98.169L102.514 12.3356H99.412L96.5942 20.6949H96.5586L93.8589 12.4185H91.7395L89.0517 20.6949H89.0161L86.1983 12.3356H83.9467H83.1268L85.1589 18.1022ZM104.505 18.4216C104.505 19.0057 104.608 19.5425 104.813 20.0319C105.018 20.5213 105.299 20.9436 105.654 21.2988C106.009 21.6461 106.424 21.9185 106.897 22.1158C107.371 22.3053 107.88 22.4 108.425 22.4C108.961 22.4 109.466 22.3053 109.94 22.1158C110.414 21.9185 110.824 21.6461 111.172 21.2988C111.527 20.9436 111.807 20.5252 112.012 20.0437C112.217 19.5543 112.32 19.0136 112.32 18.4216C112.32 17.8454 112.217 17.3165 112.012 16.835C111.807 16.3456 111.527 15.9272 111.172 15.5799C110.816 15.2326 110.402 14.9603 109.928 14.7629C109.455 14.5656 108.946 14.4669 108.401 14.4669C107.856 14.4669 107.347 14.5656 106.873 14.7629C106.4 14.9524 105.985 15.2247 105.63 15.5799C105.283 15.9272 105.006 16.3416 104.801 16.8231C104.604 17.3047 104.505 17.8375 104.505 18.4216ZM101.628 18.4334C101.628 17.5415 101.782 16.7047 102.09 15.9233C102.406 15.1339 102.848 14.4472 103.416 13.863C103.992 13.2789 104.679 12.8171 105.476 12.4777C106.282 12.1383 107.173 11.9686 108.152 11.9686C108.618 11.9686 109.056 12.0159 109.466 12.1107C109.877 12.1975 110.264 12.3198 110.627 12.4777C110.99 12.6277 111.321 12.8092 111.621 13.0224C111.929 13.2276 112.202 13.4447 112.439 13.6736L112.604 12.3356H115.067V24.5194H112.604L112.439 23.1814C112.194 23.4182 111.917 23.6393 111.61 23.8445C111.302 24.0497 110.966 24.2313 110.603 24.3892C110.248 24.5391 109.861 24.6575 109.443 24.7444C109.032 24.8391 108.598 24.8864 108.14 24.8864C107.17 24.8864 106.282 24.7207 105.476 24.3892C104.679 24.0497 103.996 23.588 103.428 23.0038C102.859 22.4197 102.417 21.7369 102.102 20.9554C101.786 20.1661 101.628 19.3254 101.628 18.4334ZM128.413 12.3356L125.323 12.3475L121.865 20.6831L121.723 20.0792L118.479 12.3356H115.294L120.35 23.9984L118.171 28.6991H121.285L128.413 12.3356Z" fill="white"/>
</g>
<defs>
<clipPath id="clip0_3298_19774">
<rect width="128.772" height="34.2478" fill="white" transform="translate(0.5 0.5)"/>
</clipPath>
</defs>
</svg>
