<svg width="16" height="16" viewBox="0 0 16 16" fill="none" xmlns="http://www.w3.org/2000/svg">
<mask id="mask0_1160_579653" style="mask-type:alpha" maskUnits="userSpaceOnUse" x="0" y="0" width="16" height="16">
<rect width="16" height="16" fill="#D9D9D9"/>
</mask>
<g mask="url(#mask0_1160_579653)">
<path d="M8 10.8289C8.92468 10.8289 9.71069 10.5053 10.3581 9.85805C11.0053 9.21069 11.3289 8.42468 11.3289 7.5C11.3289 6.7162 11.0871 6.02349 10.6035 5.42187C10.12 4.82034 9.49783 4.43196 8.737 4.25674C8.57818 4.23744 8.43976 4.27922 8.32175 4.38208C8.20374 4.48484 8.14474 4.61564 8.14474 4.77446V7.55572L6.1808 9.51966C6.06279 9.63767 6.01045 9.77517 6.02376 9.93216C6.03718 10.0891 6.10771 10.2151 6.23537 10.3101C6.4929 10.4949 6.77336 10.6276 7.07672 10.7081C7.38019 10.7887 7.68795 10.8289 8 10.8289ZM8.00101 13C7.24028 13 6.52523 12.8556 5.85587 12.5669C5.18651 12.2782 4.60428 11.8864 4.10918 11.3915C3.61409 10.8966 3.22209 10.3146 2.9332 9.64558C2.6444 8.97651 2.5 8.26165 2.5 7.50101C2.5 6.74028 2.64435 6.02523 2.93305 5.35587C3.22175 4.68651 3.61356 4.10428 4.10846 3.60918C4.60336 3.11409 5.18535 2.72209 5.85442 2.4332C6.52349 2.1444 7.23835 2 7.99899 2C8.75972 2 9.47477 2.14435 10.1441 2.43305C10.8135 2.72175 11.3957 3.11356 11.8908 3.60846C12.3859 4.10336 12.7779 4.68535 13.0668 5.35442C13.3556 6.02349 13.5 6.73835 13.5 7.49899C13.5 8.25972 13.3556 8.97477 13.0669 9.64413C12.7782 10.3135 12.3864 10.8957 11.8915 11.3908C11.3966 11.8859 10.8146 12.2779 10.1456 12.5668C9.47651 12.8556 8.76165 13 8.00101 13ZM8 12.1316C9.29298 12.1316 10.3882 11.6829 11.2855 10.7855C12.1829 9.88816 12.6316 8.79298 12.6316 7.5C12.6316 6.20702 12.1829 5.11184 11.2855 4.21447C10.3882 3.31711 9.29298 2.86842 8 2.86842C6.70702 2.86842 5.61184 3.31711 4.71447 4.21447C3.81711 5.11184 3.36842 6.20702 3.36842 7.5C3.36842 8.79298 3.81711 9.88816 4.71447 10.7855C5.61184 11.6829 6.70702 12.1316 8 12.1316Z" fill="#1C1B1F" fill-opacity="0.95"/>
</g>
</svg>
