<svg width="20" height="20" viewBox="0 0 20 20" fill="none" xmlns="http://www.w3.org/2000/svg">
<mask id="mask0_622_192631" style="mask-type:alpha" maskUnits="userSpaceOnUse" x="0" y="0" width="20" height="20">
<rect width="20" height="20" fill="#D9D9D9"/>
</mask>
<g mask="url(#mask0_622_192631)">
<path d="M1.32056 15.5833V4.41667H2.40368V15.5833H1.32056ZM4.4166 15.5833V4.41667H5.49993V15.5833H4.4166ZM8.85243 15.5833C8.47743 15.5833 8.16042 15.4538 7.90139 15.1948C7.64236 14.9358 7.51285 14.6187 7.51285 14.2435V5.75646C7.51285 5.38132 7.64236 5.06424 7.90139 4.80521C8.16042 4.54619 8.47743 4.41667 8.85243 4.41667H17.3397C17.7147 4.41667 18.0317 4.54619 18.2908 4.80521C18.5498 5.06424 18.6793 5.38132 18.6793 5.75646V14.2435C18.6793 14.6187 18.5498 14.9358 18.2908 15.1948C18.0317 15.4538 17.7147 15.5833 17.3397 15.5833H8.85243ZM8.85243 14.5H17.3397C17.4038 14.5 17.4625 14.4733 17.516 14.4198C17.5694 14.3665 17.5962 14.3077 17.5962 14.2435V5.75646C17.5962 5.6923 17.5694 5.63355 17.516 5.58021C17.4625 5.52674 17.4038 5.50001 17.3397 5.50001H8.85243C8.7884 5.50001 8.72965 5.52674 8.67618 5.58021C8.62285 5.63355 8.59618 5.6923 8.59618 5.75646V14.2435C8.59618 14.3077 8.62285 14.3665 8.67618 14.4198C8.72965 14.4733 8.7884 14.5 8.85243 14.5ZM9.78847 12.9038H16.4037L14.3253 10.1602L12.5962 12.4102L11.367 10.7852L9.78847 12.9038Z" fill="#1C1B1F"/>
</g>
</svg>
