<svg width="129" height="35" viewBox="0 0 129 35" fill="none" xmlns="http://www.w3.org/2000/svg">
<g clip-path="url(#clip0_3298_19745)">
<path d="M2.53798 4.02306C2.56945 3.93129 2.59859 3.84913 2.62495 3.77672C7.47074 1.86321 12.8637 1.86264 17.7098 3.77498C17.7368 3.85066 17.7668 3.93671 17.7992 4.03296C17.9546 4.49414 18.1658 5.18914 18.3783 6.09913C18.8034 7.91907 19.2336 10.5979 19.2336 13.986C19.2336 17.3742 18.8034 20.053 18.3783 21.873C18.1658 22.7829 17.9546 23.4779 17.7992 23.9391C17.7668 24.0354 17.7368 24.1214 17.7098 24.1971C12.8637 26.1094 7.47074 26.1089 2.62495 24.1954C2.59859 24.1229 2.56945 24.0408 2.53798 23.949C2.38333 23.498 2.17261 22.8146 1.96039 21.9127C1.536 20.109 1.10547 17.4306 1.10547 13.986C1.10547 10.5415 1.536 7.86308 1.96039 6.05941C2.17261 5.15746 2.38333 4.4741 2.53798 4.02306Z" stroke="black" stroke-width="1.8423"/>
<path fill-rule="evenodd" clip-rule="evenodd" d="M2.79187 27.0894C7.57466 28.7292 12.7674 28.7292 17.5502 27.0894C17.9461 28.2444 17.3323 29.5119 16.1468 29.8042C12.2221 30.7721 8.11992 30.7721 4.19522 29.8042C3.00973 29.5119 2.39588 28.2444 2.79187 27.0894Z" fill="black"/>
<path fill-rule="evenodd" clip-rule="evenodd" d="M4.24619 31.2628C8.13437 32.2349 12.202 32.2349 16.0902 31.2628C16.3864 32.4473 15.6668 33.6571 14.4618 33.8539C11.6183 34.3187 8.71807 34.3187 5.87456 33.8539C4.66957 33.6571 3.95005 32.4473 4.24619 31.2628Z" fill="black"/>
<path d="M14.1475 12.2175H14.1475C13.1707 12.2175 12.3789 13.0093 12.3789 13.9861V13.9861C12.3789 14.9629 13.1707 15.7547 14.1475 15.7547H14.1475C15.1243 15.7547 15.9161 14.9629 15.9161 13.9861V13.9861C15.9161 13.0093 15.1243 12.2175 14.1475 12.2175Z" fill="black"/>
<path fill-rule="evenodd" clip-rule="evenodd" d="M34.7415 21.9737H37.9855C38.8855 21.9737 39.6826 21.8514 40.3774 21.6067C41.0797 21.3541 41.6681 20.9949 42.1416 20.5292C42.6231 20.0556 42.9862 19.4833 43.2309 18.8123C43.4755 18.1335 43.5979 17.3638 43.5979 16.5034C43.5979 15.6746 43.4836 14.9208 43.2545 14.2419C43.0257 13.5631 42.6784 12.9829 42.2127 12.5014C41.747 12.012 41.1629 11.6331 40.4603 11.3647C39.7577 11.0963 38.9328 10.9621 37.9855 10.9621H34.7415V21.9737ZM31.7812 24.5194V8.41644H38.0331C39.2564 8.41644 40.3891 8.59405 41.4312 8.94926C42.473 9.29658 43.373 9.80966 44.1309 10.4885C44.8885 11.1674 45.4804 12.008 45.9069 13.0105C46.3409 14.013 46.5581 15.1615 46.5581 16.4561C46.5581 17.6559 46.3727 18.7531 46.0015 19.7477C45.6306 20.7344 45.082 21.583 44.3558 22.2934C43.6374 22.9959 42.7532 23.5446 41.7034 23.9392C40.6535 24.326 39.446 24.5194 38.0803 24.5194H31.7812ZM47.0453 18.4334C47.0453 17.5415 47.211 16.7047 47.5427 15.9233C47.8741 15.1339 48.336 14.4472 48.9279 13.863C49.5279 13.2789 50.2382 12.8171 51.0593 12.4777C51.8803 12.1383 52.7761 11.9686 53.747 11.9686C54.726 11.9686 55.6257 12.1383 56.4467 12.4777C57.2755 12.8171 57.9859 13.2789 58.5778 13.863C59.1778 14.4472 59.6435 15.1339 59.9752 15.9233C60.3144 16.7047 60.4843 17.5415 60.4843 18.4334C60.4843 19.3333 60.3186 20.174 59.9869 20.9554C59.6555 21.7369 59.1898 22.4197 58.5898 23.0038C57.9898 23.588 57.2755 24.0497 56.4467 24.3892C55.6257 24.7207 54.7218 24.8864 53.7353 24.8864C52.7645 24.8864 51.8684 24.7207 51.0473 24.3892C50.2344 24.0497 49.5318 23.588 48.9398 23.0038C48.3479 22.4197 47.8822 21.7369 47.5427 20.9554C47.211 20.1661 47.0453 19.3254 47.0453 18.4334ZM49.9227 18.4216C49.9227 19.0057 50.0214 19.5425 50.2185 20.0319C50.424 20.5134 50.7001 20.9317 51.0473 21.287C51.3949 21.6343 51.8014 21.9066 52.2671 22.104C52.7405 22.3013 53.2418 22.4 53.7706 22.4C54.3075 22.4 54.8088 22.3053 55.2745 22.1158C55.7402 21.9185 56.1467 21.6461 56.494 21.2988C56.8412 20.9436 57.1137 20.5213 57.3111 20.0319C57.5163 19.5425 57.6189 19.0057 57.6189 18.4216C57.6189 17.8454 57.5163 17.3165 57.3111 16.835C57.1137 16.3456 56.8412 15.9272 56.494 15.5799C56.1467 15.2326 55.7402 14.9603 55.2745 14.7629C54.8088 14.5656 54.3075 14.4669 53.7706 14.4669C53.2341 14.4669 52.7328 14.5656 52.2671 14.7629C51.8014 14.9524 51.3949 15.2247 51.0473 15.5799C50.7001 15.9272 50.424 16.3416 50.2185 16.8231C50.0214 17.3047 49.9227 17.8375 49.9227 18.4216ZM61.4217 15.9233C61.09 16.7047 60.9243 17.5415 60.9243 18.4334C60.9243 19.3254 61.09 20.1661 61.4217 20.9554C61.7609 21.7369 62.2266 22.4197 62.8188 23.0038C63.4107 23.588 64.1133 24.0497 64.9263 24.3892C65.7473 24.7207 66.6431 24.8864 67.614 24.8864C68.6007 24.8864 69.5046 24.7207 70.3256 24.3892C71.1545 24.0497 71.8687 23.588 72.4687 23.0038C73.0687 22.4197 73.5344 21.7369 73.8658 20.9554C74.1972 20.174 74.3632 19.3333 74.3632 18.4334C74.3632 17.5415 74.1933 16.7047 73.8539 15.9233C73.5224 15.1339 73.0568 14.4472 72.4568 13.863C71.8648 13.2789 71.1545 12.8171 70.3256 12.4777C69.5046 12.1383 68.6046 11.9686 67.6259 11.9686C66.6551 11.9686 65.759 12.1383 64.9382 12.4777C64.1172 12.8171 63.4068 13.2789 62.8068 13.863C62.2149 14.4472 61.7531 15.1339 61.4217 15.9233ZM64.0974 20.0319C63.9 19.5425 63.8013 19.0057 63.8013 18.4216C63.8013 17.8375 63.9 17.3047 64.0974 16.8231C64.3026 16.3416 64.579 15.9272 64.9263 15.5799C65.2735 15.2247 65.6803 14.9524 66.146 14.7629C66.6117 14.5656 67.113 14.4669 67.6496 14.4669C68.1865 14.4669 68.6878 14.5656 69.1535 14.7629C69.6192 14.9603 70.0256 15.2326 70.3729 15.5799C70.7202 15.9272 70.9926 16.3456 71.1898 16.835C71.3952 17.3165 71.4978 17.8454 71.4978 18.4216C71.4978 19.0057 71.3952 19.5425 71.1898 20.0319C70.9926 20.5213 70.7202 20.9436 70.3729 21.2988C70.0256 21.6461 69.6192 21.9185 69.1535 22.1158C68.6878 22.3053 68.1865 22.4 67.6496 22.4C67.1208 22.4 66.6195 22.3013 66.146 22.104C65.6803 21.9066 65.2735 21.6343 64.9263 21.287C64.579 20.9317 64.3026 20.5134 64.0974 20.0319ZM81.9126 14.8704L81.0356 12.3819C80.5137 12.4434 80.0426 12.5661 79.622 12.75C78.9984 13.0263 78.4816 13.3736 78.0712 13.792L77.8107 12.3356H75.478V24.5194H78.3553V18.6821C78.3553 18.0506 78.4382 17.4981 78.6039 17.0244C78.7777 16.5508 79.0223 16.1561 79.3379 15.8404C79.6615 15.5167 80.0483 15.276 80.4984 15.1181C80.921 14.9624 81.3924 14.8798 81.9126 14.8704ZM84.6589 18.1022L86.9414 24.5194H89.5462L92.2815 16.7047L95.0521 24.5194H97.669L102.014 12.3356H98.912L96.0942 20.6949H96.0586L93.3589 12.4185H91.2395L88.5517 20.6949H88.5161L85.6983 12.3356H83.4467H82.6268L84.6589 18.1022ZM104.005 18.4216C104.005 19.0057 104.108 19.5425 104.313 20.0319C104.518 20.5213 104.799 20.9436 105.154 21.2988C105.509 21.6461 105.924 21.9185 106.397 22.1158C106.871 22.3053 107.38 22.4 107.925 22.4C108.461 22.4 108.966 22.3053 109.44 22.1158C109.914 21.9185 110.324 21.6461 110.672 21.2988C111.027 20.9436 111.307 20.5252 111.512 20.0437C111.717 19.5543 111.82 19.0136 111.82 18.4216C111.82 17.8454 111.717 17.3165 111.512 16.835C111.307 16.3456 111.027 15.9272 110.672 15.5799C110.316 15.2326 109.902 14.9603 109.428 14.7629C108.955 14.5656 108.446 14.4669 107.901 14.4669C107.356 14.4669 106.847 14.5656 106.373 14.7629C105.9 14.9524 105.485 15.2247 105.13 15.5799C104.783 15.9272 104.506 16.3416 104.301 16.8231C104.104 17.3047 104.005 17.8375 104.005 18.4216ZM101.128 18.4334C101.128 17.5415 101.282 16.7047 101.59 15.9233C101.906 15.1339 102.348 14.4472 102.916 13.863C103.492 13.2789 104.179 12.8171 104.976 12.4777C105.782 12.1383 106.673 11.9686 107.652 11.9686C108.118 11.9686 108.556 12.0159 108.966 12.1107C109.377 12.1975 109.764 12.3198 110.127 12.4777C110.49 12.6277 110.821 12.8092 111.121 13.0224C111.429 13.2276 111.702 13.4447 111.939 13.6736L112.104 12.3356H114.567V24.5194H112.104L111.939 23.1814C111.694 23.4182 111.417 23.6393 111.11 23.8445C110.802 24.0497 110.466 24.2313 110.103 24.3892C109.748 24.5391 109.361 24.6575 108.943 24.7444C108.532 24.8391 108.098 24.8864 107.64 24.8864C106.67 24.8864 105.782 24.7207 104.976 24.3892C104.179 24.0497 103.496 23.588 102.928 23.0038C102.359 22.4197 101.917 21.7369 101.602 20.9554C101.286 20.1661 101.128 19.3254 101.128 18.4334ZM127.913 12.3356L124.823 12.3475L121.365 20.6831L121.223 20.0792L117.979 12.3356H114.794L119.85 23.9984L117.671 28.6991H120.785L127.913 12.3356Z" fill="black"/>
</g>
<defs>
<clipPath id="clip0_3298_19745">
<rect width="128.772" height="34.2478" fill="white" transform="translate(0 0.5)"/>
</clipPath>
</defs>
</svg>
