<svg width="16" height="16" viewBox="0 0 16 16" fill="none" xmlns="http://www.w3.org/2000/svg">
<mask id="mask0_1160_579658" style="mask-type:alpha" maskUnits="userSpaceOnUse" x="0" y="0" width="16" height="16">
<rect width="16" height="16" fill="url(#paint0_linear_1160_579658)"/>
</mask>
<g mask="url(#mask0_1160_579658)">
<path d="M2.01835 11.5064C1.91491 11.4031 1.86596 11.2843 1.87152 11.1501C1.87707 11.0159 1.92602 10.9026 2.01835 10.8104L5.38119 7.40391C5.61107 7.16969 5.89568 7.05258 6.23502 7.05258C6.57424 7.05258 6.86096 7.16969 7.09518 7.40391L8.76052 9.07958C8.79907 9.11802 8.84613 9.13725 8.90169 9.13725C8.95724 9.13725 9.00635 9.11802 9.04902 9.07958L12.644 5.52441H11.167C11.0251 5.52441 10.9064 5.47658 10.8107 5.38091C10.7149 5.28514 10.667 5.1663 10.667 5.02441C10.667 4.88253 10.7149 4.76375 10.8107 4.66808C10.9064 4.5723 11.0251 4.52441 11.167 4.52441H13.731C13.9029 4.52441 14.0463 4.58191 14.1612 4.69691C14.2762 4.81191 14.3337 4.9553 14.3337 5.12708V7.69108C14.3337 7.83297 14.2858 7.9518 14.19 8.04758C14.0944 8.14325 13.9756 8.19108 13.8337 8.19108C13.6918 8.19108 13.573 8.1443 13.4774 8.05075C13.3816 7.95719 13.3337 7.83947 13.3337 7.69758V6.22691L9.75552 9.80525C9.52552 10.0351 9.24091 10.1501 8.90169 10.1501C8.56235 10.1501 8.27774 10.0351 8.04785 9.80525L6.38235 8.13975C6.34391 8.1013 6.2948 8.08208 6.23502 8.08208C6.17513 8.08208 6.12596 8.1013 6.08752 8.13975L2.72085 11.5064C2.6243 11.6031 2.50719 11.6514 2.36952 11.6514C2.23196 11.6514 2.11491 11.6031 2.01835 11.5064Z" fill="url(#paint1_linear_1160_579658)"/>
</g>
<defs>
<linearGradient id="paint0_linear_1160_579658" x1="-5.56523" y1="-15.0001" x2="15.3023" y2="-14.5106" gradientUnits="userSpaceOnUse">
<stop stop-color="#F05524"/>
<stop offset="0.288462" stop-color="#EE454A"/>
<stop offset="0.418269" stop-color="#D5529D"/>
<stop offset="0.649038" stop-color="#926AAE"/>
<stop offset="1" stop-color="#0287FF"/>
</linearGradient>
<linearGradient id="paint1_linear_1160_579658" x1="-2.46373" y1="-2.15718" x2="13.7718" y2="-1.49124" gradientUnits="userSpaceOnUse">
<stop stop-color="#0287FF"/>
<stop offset="0.350962" stop-color="#926AAE"/>
<stop offset="0.581731" stop-color="#D5529D"/>
<stop offset="0.711538" stop-color="#EE454A"/>
<stop offset="1" stop-color="#F05524"/>
</linearGradient>
</defs>
</svg>
